<svg version="1.2" xmlns="http://www.w3.org/2000/svg" viewBox="0 0 800 600" width="800" height="600">
	<title>shape-078@1x-svg</title>
	<style>
		.s0 { opacity: .9;fill: #16161a } 
		.s1 { opacity: .9;fill: #7f5af0 } 
		.s2 { opacity: .9;fill: #fffffe } 
	</style>
	<path id="Layer" class="s0" d="m142.9 115.3h-78.5c-7.4 0-13.4-6.1-13.4-13.4v-78.5c0-7.4 6-13.4 13.4-13.4h78.5c7.3 0 13.4 6 13.4 13.4v78.5c0 7.3-6.1 13.4-13.4 13.4z"/>
	<path id="Layer" class="s0" d="m261.5 115.3h-78.5c-7.3 0-13.4-6.1-13.4-13.4v-78.5c0-7.4 6.1-13.4 13.4-13.4h78.5c7.4 0 13.4 6 13.4 13.4v78.5c0 7.3-6 13.4-13.4 13.4z"/>
	<path id="Layer" class="s0" d="m261.5 233.9h-78.5c-7.3 0-13.4-6-13.4-13.4v-78.5c0-7.3 6.1-13.4 13.4-13.4h78.5c7.4 0 13.4 6.1 13.4 13.4v78.5c0 7.4-6 13.4-13.4 13.4z"/>
	<path id="Layer" class="s0" d="m142.9 352.5h-78.5c-7.4 0-13.4-6-13.4-13.3v-78.5c0-7.4 6-13.4 13.4-13.4h78.5c7.3 0 13.4 6 13.4 13.4v78.5c0 7.5-6.1 13.3-13.4 13.3z"/>
	<path id="Layer" class="s0" d="m380.2 471.4h-78.5c-7.4 0-13.4-6.1-13.4-13.4v-78.5c0-7.4 6-13.4 13.4-13.4h78.5c7.3 0 13.3 6 13.3 13.4v78.5c0 7.3-6 13.4-13.3 13.4z"/>
	<path id="Layer" class="s0" d="m617.6 471.4h-78.5c-7.3 0-13.4-6.1-13.4-13.4v-78.5c0-7.4 6.1-13.4 13.4-13.4h78.5c7.4 0 13.4 6 13.4 13.4v78.5c0 7.3-6 13.4-13.4 13.4z"/>
	<path id="Layer" class="s1" d="m498.8 233.9h-78.5c-7.3 0-13.4-6-13.4-13.4v-78.5c0-7.3 6.1-13.4 13.4-13.4h78.5c7.4 0 13.4 6.1 13.4 13.4v78.5c0 7.4-5.9 13.4-13.4 13.4z"/>
	<path id="Layer" class="s1" d="m617.6 233.9h-78.5c-7.3 0-13.4-6-13.4-13.4v-78.5c0-7.3 6.1-13.4 13.4-13.4h78.5c7.4 0 13.4 6.1 13.4 13.4v78.5c0 7.4-5.9 13.4-13.4 13.4z"/>
	<path id="Layer" class="s2" d="m498.8 590h-78.5c-7.3 0-13.4-6-13.4-13.4v-78.5c0-7.3 6.1-13.4 13.4-13.4h78.5c7.4 0 13.4 6.1 13.4 13.4v78.5c0 7.4-5.9 13.4-13.4 13.4z"/>
	<path id="Layer" class="s0" d="m736.3 590h-78.5c-7.4 0-13.4-6-13.4-13.4v-78.5c0-7.3 6-13.4 13.4-13.4h78.5c7.3 0 13.3 6.1 13.3 13.4v78.5c0 7.4-6 13.4-13.3 13.4z"/>
</svg>